<?xml version="1.0" standalone="no"?>
<!DOCTYPE svg PUBLIC "-//W3C//DTD SVG 20010904//EN"
 "http://www.w3.org/TR/2001/REC-SVG-20010904/DTD/svg10.dtd">
<svg version="1.0" xmlns="http://www.w3.org/2000/svg"
 width="1200.000000pt" height="1200.000000pt" viewBox="0 0 1200.000000 1200.000000"
 preserveAspectRatio="xMidYMid meet">
<metadata>
Created by potrace 1.14, written by Peter Selinger 2001-2017
</metadata>
<g transform="translate(0.000000,1200.000000) scale(0.100000,-0.100000)"
fill="#000000" stroke="none">
<path d="M5789 9146 c-3 -3 -38 -8 -79 -11 -108 -9 -168 -16 -240 -30 -13 -3
-42 -7 -64 -11 -22 -3 -44 -8 -49 -11 -4 -2 -20 -6 -35 -8 -15 -3 -37 -7 -49
-10 -13 -3 -33 -7 -44 -10 -39 -8 -132 -36 -214 -63 -44 -14 -82 -27 -85 -28
-3 0 -18 -6 -33 -12 -15 -7 -74 -31 -130 -53 -56 -23 -105 -46 -108 -51 -3 -6
-9 -9 -13 -8 -9 1 -177 -84 -226 -115 -22 -14 -42 -25 -45 -25 -8 0 -69 -43
-77 -55 -5 -7 -8 -7 -8 0 0 7 -3 7 -8 0 -4 -5 -34 -28 -67 -50 -33 -22 -67
-45 -75 -52 -181 -141 -205 -161 -298 -250 -30 -29 -59 -53 -64 -53 -4 0 -8
-3 -8 -8 0 -4 -26 -35 -57 -68 -51 -53 -106 -115 -172 -194 -82 -99 -202 -277
-286 -426 -60 -105 -142 -275 -151 -310 -3 -13 -10 -24 -14 -24 -4 0 -10 -10
-13 -22 -2 -13 -25 -80 -51 -151 -25 -70 -45 -128 -45 -130 0 -1 -2 -9 -4 -17
-12 -36 -39 -145 -43 -169 -3 -14 -7 -33 -10 -41 -3 -8 -8 -28 -11 -45 -8 -53
-21 -127 -29 -170 -6 -33 -10 -65 -20 -165 -8 -91 -15 -472 -8 -490 3 -8 7
-51 10 -95 2 -44 6 -93 9 -110 11 -77 16 -112 20 -135 3 -14 8 -45 11 -70 3
-25 9 -49 12 -54 3 -5 6 -19 8 -30 8 -70 133 -474 155 -502 5 -6 6 -14 2 -17
-3 -4 -1 -7 5 -7 7 0 11 -3 10 -7 -5 -23 139 -307 218 -430 19 -29 34 -56 34
-59 0 -2 5 -10 11 -17 5 -7 40 -54 76 -106 36 -51 73 -102 82 -111 9 -10 24
-28 33 -41 40 -55 100 -120 213 -234 155 -156 281 -265 387 -335 21 -14 38
-28 38 -32 0 -5 4 -8 9 -8 5 0 49 -26 98 -58 152 -100 457 -260 486 -254 4 1
7 -3 7 -8 0 -5 3 -9 8 -8 4 0 16 -2 27 -6 33 -13 116 -43 175 -64 50 -18 250
-74 310 -86 105 -23 165 -34 215 -41 17 -2 46 -7 65 -9 184 -27 620 -28 805
-1 30 4 70 10 135 18 39 6 88 16 110 24 8 3 26 7 40 9 34 4 93 18 205 49 6 1
12 3 15 3 3 1 46 16 95 33 50 17 96 32 103 32 6 0 12 4 12 9 0 4 5 8 11 8 28
0 288 116 301 135 4 5 8 7 8 4 0 -6 21 5 142 71 72 39 336 216 358 240 3 3 28
23 55 45 28 21 61 48 74 60 39 34 284 278 311 310 90 107 161 197 190 240 19
28 37 52 42 53 4 2 8 7 8 12 0 4 18 34 39 66 83 124 231 407 247 470 3 13 11
24 17 24 6 0 8 3 5 6 -4 3 1 22 9 42 31 73 36 87 39 97 1 6 16 51 33 102 17
51 33 103 35 115 3 13 14 56 25 96 10 39 17 72 15 72 -2 0 1 11 6 24 5 13 11
41 15 63 3 21 7 48 9 60 10 47 18 100 21 138 3 22 7 60 10 85 12 89 16 500 5
500 -7 0 -7 6 -1 19 6 10 8 21 5 24 -3 3 -7 34 -10 69 -2 34 -6 77 -9 93 -2
17 -7 50 -10 75 -3 25 -8 52 -11 59 -3 8 -7 35 -10 60 -3 25 -9 53 -14 62 -5
9 -7 19 -4 21 2 3 0 16 -5 30 -5 14 -12 38 -14 54 -7 42 -31 128 -37 134 -3 3
-6 14 -8 25 -4 24 -36 119 -67 200 -32 80 -46 120 -46 122 -1 7 -153 307 -179
352 -50 88 -214 327 -240 351 -3 3 -15 17 -26 32 -104 135 -347 378 -482 482
-15 11 -29 23 -32 26 -20 24 -295 210 -310 210 -5 0 -10 5 -10 10 0 6 -6 10
-14 10 -7 0 -19 7 -26 15 -7 8 -16 13 -20 10 -5 -3 -10 -1 -12 3 -3 8 -292
157 -311 160 -4 1 -23 9 -43 17 -20 8 -38 15 -41 15 -2 0 -20 7 -41 17 -20 9
-39 17 -42 17 -43 11 -100 32 -100 37 0 4 -8 6 -17 4 -10 -1 -26 2 -36 7 -20
11 -116 37 -161 45 -16 2 -40 9 -54 14 -14 5 -27 7 -30 5 -2 -3 -12 -1 -21 4
-10 5 -35 11 -57 14 -39 5 -140 22 -149 25 -3 0 -6 1 -7 2 -8 1 -91 9 -141 13
-33 3 -61 7 -64 10 -3 3 -14 1 -24 -5 -12 -6 -19 -6 -19 0 0 5 -77 9 -190 9
-142 0 -188 -3 -183 -11 5 -8 2 -8 -9 0 -8 7 -17 11 -19 9z m506 -220 c17 -3
55 -8 85 -12 30 -4 62 -8 70 -9 8 -1 39 -6 68 -10 28 -4 52 -10 52 -14 0 -3
21 -7 47 -8 25 -1 49 -6 52 -10 3 -5 17 -9 31 -10 14 -1 57 -11 95 -23 39 -12
77 -23 85 -25 8 -2 16 -4 18 -5 1 -2 7 -4 12 -5 6 -1 12 -4 15 -5 8 -4 17 -7
53 -15 17 -4 32 -11 32 -15 0 -3 6 -7 13 -7 19 -1 142 -52 250 -105 54 -26
102 -48 107 -48 6 0 10 -4 10 -10 0 -5 5 -10 11 -10 20 0 300 -175 307 -192 2
-4 8 -8 14 -8 5 0 15 -6 23 -12 7 -7 25 -22 40 -32 14 -11 36 -28 48 -38 12
-10 40 -33 62 -51 92 -75 403 -398 414 -430 2 -7 10 -16 17 -22 17 -14 167
-231 200 -290 6 -11 21 -38 34 -60 27 -46 130 -251 130 -258 0 -2 10 -26 22
-53 12 -27 23 -54 24 -60 1 -6 9 -27 17 -45 8 -19 21 -52 27 -74 7 -22 17 -46
23 -52 5 -7 7 -13 4 -13 -4 0 0 -18 8 -40 8 -22 12 -40 10 -40 -2 0 3 -19 11
-42 9 -24 17 -52 18 -63 2 -11 6 -29 9 -40 3 -11 8 -31 11 -45 3 -14 10 -50
16 -80 6 -30 13 -77 16 -105 3 -27 8 -63 10 -80 14 -97 18 -170 18 -340 1
-104 -3 -226 -7 -270 -4 -44 -9 -98 -11 -120 -2 -22 -5 -40 -6 -40 -1 0 -4
-13 -5 -30 -2 -16 -6 -39 -8 -50 -5 -22 -19 -92 -23 -115 -1 -8 -5 -26 -9 -40
-4 -14 -7 -35 -8 -47 -1 -13 -4 -23 -7 -23 -3 0 -6 -10 -7 -22 -1 -12 -6 -33
-11 -47 -6 -14 -20 -60 -32 -101 -13 -41 -27 -86 -33 -100 -6 -14 -11 -27 -11
-30 -23 -96 -274 -585 -308 -598 -4 -2 -8 -8 -8 -13 0 -5 -33 -53 -72 -106
-40 -52 -79 -105 -85 -117 -7 -12 -13 -16 -13 -11 0 6 -8 -4 -19 -21 -21 -34
-271 -288 -346 -351 -27 -23 -77 -62 -110 -87 -33 -25 -67 -53 -76 -61 -9 -8
-21 -15 -27 -15 -7 0 -12 -4 -12 -10 0 -5 -7 -10 -15 -10 -8 0 -15 -4 -15 -9
0 -5 -9 -13 -20 -16 -11 -3 -26 -12 -32 -19 -17 -16 -186 -116 -197 -116 -5 0
-11 -3 -13 -7 -1 -5 -28 -19 -58 -33 -30 -14 -57 -27 -60 -30 -3 -3 -23 -13
-45 -22 -22 -9 -74 -31 -115 -48 -104 -45 -237 -89 -244 -82 -3 3 -6 -1 -6 -8
0 -7 -2 -11 -6 -8 -3 3 -26 -1 -52 -9 -54 -16 -79 -23 -107 -28 -34 -7 -66
-14 -86 -20 -11 -4 -32 -8 -47 -10 -15 -2 -49 -8 -77 -13 -27 -5 -57 -10 -65
-11 -8 0 -33 -3 -55 -6 -229 -32 -603 -27 -810 11 -16 3 -50 8 -75 11 -25 3
-47 8 -50 12 -3 3 -25 7 -50 9 -24 2 -47 6 -50 10 -3 5 -14 8 -25 8 -11 0 -47
8 -80 18 -33 10 -71 20 -85 23 -13 2 -29 8 -35 12 -5 5 -34 14 -62 22 -29 7
-53 17 -53 23 0 5 -3 7 -6 4 -11 -12 -364 144 -372 164 -2 4 -8 8 -14 8 -6 0
-58 30 -117 66 -58 36 -115 70 -125 77 -24 15 -42 28 -61 44 -7 7 -16 13 -20
13 -4 0 -12 6 -20 12 -7 7 -28 24 -46 38 -69 52 -156 126 -209 177 -30 29 -70
66 -87 83 -18 16 -31 30 -30 30 2 0 -22 26 -52 59 -65 68 -105 116 -179 215
-29 39 -60 79 -68 89 -8 9 -14 20 -14 23 0 2 -4 10 -10 17 -15 18 -80 118 -80
123 0 3 -11 22 -24 43 -40 62 -166 317 -166 335 0 3 -9 25 -19 49 -19 40 -60
151 -64 172 -2 6 -6 16 -11 23 -4 7 -5 16 -2 19 3 3 2 11 -3 17 -8 10 -53 176
-65 236 -3 14 -10 50 -16 80 -6 30 -13 78 -16 105 -3 28 -8 64 -10 80 -19 128
-25 462 -11 610 14 148 16 166 48 335 16 88 19 98 29 125 5 14 7 25 5 25 -2 0
0 12 6 28 10 24 14 41 22 77 2 6 6 16 10 23 5 6 6 16 2 21 -3 5 -1 12 3 15 5
3 15 26 22 51 7 25 16 48 21 51 4 2 6 11 2 19 -3 8 0 15 6 15 6 0 10 3 9 8 -4
11 44 126 56 134 6 4 7 8 3 8 -5 0 -2 12 6 28 8 15 24 47 36 71 12 24 28 55
35 70 8 14 17 33 21 41 3 8 11 24 18 35 7 11 25 43 42 70 66 113 173 263 273
385 53 63 297 308 361 360 125 104 331 250 351 250 6 0 10 5 10 10 0 6 4 10
10 10 5 0 38 17 72 38 35 21 65 39 68 39 18 3 60 28 60 36 0 6 3 7 6 4 4 -4
23 2 43 12 55 28 120 57 181 81 92 36 217 80 236 83 11 2 26 7 34 10 23 9 103
30 120 32 8 0 24 4 35 8 11 3 34 9 50 12 134 26 189 34 196 29 5 -3 9 -1 9 3
0 5 15 9 33 10 56 3 182 15 185 18 6 5 454 -3 487 -9z"/>
<path d="M6008 8105 c-2 -3 -51 -7 -109 -10 -172 -10 -227 -17 -374 -50 -49
-11 -164 -44 -205 -60 -25 -9 -51 -18 -57 -19 -21 -4 -61 -47 -68 -73 -9 -36
12 -90 43 -111 30 -21 90 -21 138 0 16 6 34 13 39 13 6 1 21 7 35 12 14 6 39
13 55 17 17 3 41 9 55 12 173 39 261 48 445 48 174 0 284 -11 415 -42 47 -10
65 -9 101 11 41 22 65 76 48 109 -5 10 -7 18 -3 18 4 0 -1 10 -12 21 -24 27
-64 45 -124 54 -14 2 -36 6 -50 10 -14 3 -38 8 -55 10 -16 2 -55 6 -85 10 -30
3 -90 8 -132 10 -43 2 -82 6 -87 9 -4 3 -10 3 -13 1z"/>
<path d="M4710 7569 c0 -5 -6 -9 -13 -9 -14 0 -55 -39 -56 -52 -1 -5 -2 -9 -2
-10 -7 -11 -3 -990 3 -994 5 -3 6 -10 2 -15 -3 -5 63 -79 148 -165 151 -152
153 -155 152 -197 -1 -23 -5 -116 -9 -207 -4 -91 -8 -182 -9 -202 -1 -20 -5
-40 -8 -44 -4 -4 -3 -14 2 -24 5 -10 7 -20 4 -23 -5 -4 -10 -95 -19 -322 -2
-49 -4 -90 -5 -90 -1 0 -3 -38 -5 -85 -2 -47 -6 -139 -10 -205 -3 -66 -8 -163
-11 -215 -3 -52 -6 -130 -7 -172 -2 -42 -6 -80 -9 -84 -4 -4 -3 -14 2 -24 5
-10 6 -20 3 -24 -10 -9 -10 -96 0 -96 4 0 7 -12 7 -26 0 -26 37 -110 62 -139
55 -67 148 -125 203 -129 14 0 25 -4 25 -7 0 -9 102 -1 150 12 73 20 153 78
198 144 11 17 29 58 40 90 22 63 22 97 6 370 -3 66 -7 153 -8 193 0 39 -4 72
-8 72 -4 0 -3 11 2 24 5 13 6 27 2 31 -4 3 -7 30 -8 58 -3 108 -16 394 -20
447 -5 67 -14 256 -28 566 -3 61 -6 115 -7 120 -5 26 12 47 147 182 80 81 150
157 155 170 14 36 11 996 -3 1026 -14 32 -55 60 -88 60 -41 -1 -87 -31 -99
-65 -7 -22 -11 -180 -11 -486 l0 -454 -150 -150 c-157 -158 -170 -178 -164
-254 2 -22 6 -94 8 -160 3 -66 6 -120 7 -120 0 0 3 -47 5 -105 2 -58 6 -136 8
-175 9 -142 9 -182 1 -195 -5 -8 -4 -11 2 -7 6 4 10 -29 12 -86 1 -51 4 -114
6 -142 7 -91 16 -299 18 -402 1 -57 4 -103 7 -103 3 0 6 -37 7 -83 7 -262 7
-281 -5 -285 -7 -2 -12 -10 -12 -17 0 -27 -117 -85 -135 -67 -3 3 -13 7 -22 8
-35 6 -63 29 -82 68 -23 47 -25 71 -17 211 3 55 8 147 11 205 3 58 8 146 10
195 9 159 17 328 20 415 2 47 4 85 5 85 1 0 3 36 5 80 3 83 15 337 20 415 2
25 4 80 4 123 1 60 4 76 14 71 9 -6 9 -4 1 7 -9 12 -10 29 -3 94 1 15 -9 52
-18 70 -5 8 -74 81 -154 162 l-145 148 1 455 c1 487 1 493 -49 525 -27 18 -86
28 -86 14z"/>
<path d="M5040 7573 c-39 -11 -64 -31 -77 -60 -10 -25 -13 -125 -13 -465 0
-392 2 -436 18 -468 43 -86 171 -62 187 35 11 64 11 78 4 107 -4 14 -5 29 -1
32 7 8 6 141 -2 154 -3 6 0 13 6 15 9 4 9 6 1 6 -8 1 -9 10 -4 29 7 27 6 74
-3 98 -2 6 -2 15 2 18 7 8 5 127 -3 134 -3 3 -1 10 5 16 5 7 5 27 1 48 -5 21
-6 40 -3 43 8 7 5 113 -3 125 -4 6 -2 10 4 10 7 0 7 8 2 23 -5 12 -8 25 -7 29
1 7 -32 44 -56 64 -14 11 -33 13 -58 7z"/>
<path d="M5328 7563 c-63 -25 -64 -29 -63 -515 0 -336 3 -440 13 -465 12 -28
28 -39 83 -56 24 -8 76 19 96 49 16 25 18 61 19 468 0 472 0 479 -50 511 -34
23 -57 25 -98 8z"/>
<path d="M6651 7553 c-141 -46 -244 -133 -298 -253 -28 -63 -97 -289 -119
-395 -19 -87 -25 -338 -11 -420 9 -51 15 -80 17 -80 1 0 3 -8 5 -18 17 -88
143 -248 241 -303 17 -10 19 -23 19 -105 0 -52 -2 -98 -4 -102 -2 -5 -5 -50
-7 -100 -1 -51 -6 -155 -9 -232 -4 -77 -8 -176 -10 -220 -2 -44 -6 -145 -10
-225 -4 -80 -8 -185 -11 -235 -2 -49 -6 -148 -10 -220 -9 -213 -10 -369 0
-390 5 -11 10 -22 11 -25 5 -21 39 -80 46 -80 5 0 9 -6 9 -12 0 -7 14 -24 32
-38 17 -14 37 -31 45 -38 7 -7 13 -10 13 -6 0 3 6 1 14 -5 35 -30 246 -63 246
-38 0 4 9 7 20 7 34 0 119 49 165 95 43 42 85 118 88 156 1 10 4 19 7 19 7 0
2 144 -15 495 -3 50 -7 155 -11 235 -3 80 -8 181 -10 225 -3 44 -5 86 -4 93 0
15 0 15 -3 129 -1 51 -4 93 -7 93 -3 0 -5 56 -5 125 0 69 -4 125 -8 125 -4 0
-3 9 3 20 6 11 7 20 3 20 -5 0 -10 52 -11 115 -3 98 -1 115 12 115 9 0 16 4
16 9 0 5 8 12 18 15 32 11 134 117 154 162 6 13 15 24 20 24 5 0 7 4 3 9 -3 5
2 16 11 25 8 9 13 20 9 25 -3 5 -1 12 4 15 10 7 27 81 36 161 8 69 12 238 6
250 -3 5 -6 28 -8 50 -4 42 -20 129 -30 155 -3 8 -8 24 -10 35 -7 41 -65 222
-85 270 -12 28 -30 59 -40 71 -10 11 -18 24 -18 29 0 11 -76 81 -126 115 -38
25 -149 67 -184 69 -119 6 -148 4 -209 -16z m185 -196 c4 -4 16 -7 27 -7 30 0
98 -43 131 -83 16 -19 28 -38 27 -41 -2 -4 4 -17 12 -30 9 -13 20 -43 27 -67
6 -24 14 -51 17 -59 8 -21 12 -35 43 -150 31 -117 40 -242 27 -375 -6 -55 -36
-155 -48 -155 -5 0 -9 -6 -9 -13 0 -29 -90 -107 -161 -140 -60 -27 -72 -49
-73 -125 0 -37 3 -146 8 -242 5 -96 9 -206 10 -245 1 -38 5 -76 9 -82 5 -8 3
-13 -3 -13 -6 0 -8 -5 -4 -12 4 -7 9 -53 10 -103 1 -49 5 -135 8 -190 2 -55 8
-165 11 -245 3 -80 8 -185 11 -235 2 -49 5 -133 7 -185 1 -52 7 -98 12 -102 6
-5 5 -8 -3 -8 -9 0 -10 -5 -4 -17 9 -18 8 -62 -3 -117 -13 -74 -114 -114 -201
-81 -25 9 -48 25 -52 34 -3 9 -10 19 -16 23 -16 10 -9 349 7 375 4 7 3 14 -3
18 -7 5 -8 50 0 50 1 0 3 50 5 110 9 234 14 360 15 360 1 0 3 38 5 85 3 82 9
213 21 480 3 69 7 159 8 201 2 42 7 82 11 89 5 9 4 11 -3 6 -9 -5 -9 -1 -3 17
6 16 6 28 -2 36 -8 8 -8 11 0 11 7 0 7 11 -1 35 -16 45 -19 48 -89 83 -31 16
-73 43 -91 60 -43 39 -94 141 -105 212 -10 60 -7 265 4 320 10 51 13 65 15 65
2 0 11 36 14 57 1 10 5 21 9 24 4 4 7 16 7 27 0 10 6 33 14 50 7 18 19 52 26
77 29 107 91 177 182 207 56 19 120 24 134 10z"/>
<path d="M7485 7381 c-33 -14 -56 -46 -59 -87 -4 -43 -1 -49 96 -179 38 -49
68 -95 68 -101 0 -6 9 -19 20 -29 11 -10 20 -22 20 -26 0 -5 13 -30 29 -58 16
-27 27 -52 24 -55 -4 -3 -1 -6 5 -6 7 0 12 -4 12 -9 0 -5 14 -39 30 -75 17
-36 33 -79 36 -95 4 -17 10 -31 15 -31 5 0 8 -3 8 -7 -1 -5 0 -11 1 -15 4 -11
6 -19 14 -53 4 -16 12 -41 17 -55 5 -14 10 -34 12 -45 2 -11 7 -27 10 -35 4
-8 8 -35 9 -60 2 -25 6 -47 10 -50 26 -20 28 -485 3 -610 -3 -14 -8 -41 -11
-60 -3 -19 -12 -60 -20 -90 -8 -30 -17 -62 -19 -70 -2 -8 -4 -15 -5 -15 -2 0
-10 -36 -12 -57 -1 -10 -5 -18 -9 -18 -3 0 -14 -27 -24 -60 -10 -33 -22 -60
-27 -60 -4 0 -7 -3 -6 -8 3 -8 -32 -93 -42 -102 -3 -3 -6 -10 -7 -16 -6 -36
-197 -324 -215 -324 -4 0 -7 -4 -6 -8 3 -7 -39 -56 -109 -129 -49 -51 -59 -90
-36 -141 24 -51 82 -71 138 -47 11 5 36 27 55 48 19 21 49 53 65 70 17 18 44
50 60 72 16 22 32 42 35 45 20 20 70 91 70 99 0 6 5 11 10 11 6 0 10 7 10 15
0 7 8 19 18 24 9 6 14 11 10 11 -4 0 9 28 30 63 21 34 44 77 51 95 7 17 18 32
23 32 5 0 7 4 4 9 -3 4 1 17 9 27 8 10 15 26 15 35 0 9 6 22 14 28 8 7 17 28
21 49 4 20 10 42 14 47 9 11 56 163 67 215 4 19 9 40 10 45 11 40 35 183 41
245 14 142 6 485 -12 550 -6 20 -15 69 -20 100 -2 14 -6 34 -9 45 -45 170 -62
222 -117 350 -53 125 -138 285 -151 285 -4 0 -8 5 -8 12 0 12 -119 181 -132
186 -4 2 -8 8 -8 13 0 14 -38 49 -66 59 -30 12 -52 12 -79 1z"/>
<path d="M4340 7267 c-22 -11 -130 -156 -147 -197 -3 -8 -15 -27 -25 -42 -11
-16 -16 -28 -11 -28 4 0 3 -4 -2 -8 -35 -25 -153 -321 -191 -482 -9 -36 -17
-69 -18 -75 -4 -16 -15 -77 -21 -115 -14 -101 -18 -141 -19 -207 -1 -40 -5
-73 -9 -73 -4 0 -4 -7 1 -17 5 -9 6 -29 2 -44 -5 -15 -6 -30 -2 -33 3 -4 6
-32 8 -64 2 -59 11 -148 19 -192 2 -14 6 -41 9 -60 2 -19 7 -42 10 -50 3 -8 8
-28 10 -45 3 -16 12 -55 21 -85 9 -30 18 -62 20 -70 2 -8 4 -15 6 -15 1 0 3
-9 4 -20 9 -62 141 -341 220 -465 53 -83 146 -209 185 -250 14 -14 39 -42 55
-61 66 -75 115 -95 168 -68 69 35 75 112 15 180 -13 14 -43 49 -68 77 -25 28
-54 62 -65 76 -11 15 -26 33 -32 41 -7 7 -13 16 -13 19 0 3 -8 15 -17 26 -66
76 -217 371 -224 435 0 6 -5 15 -11 22 -5 7 -7 16 -4 22 3 5 1 11 -5 13 -6 2
-19 39 -30 83 -11 44 -22 89 -25 100 -2 11 -6 31 -9 45 -2 14 -6 39 -8 55 -14
79 -19 138 -20 225 -1 52 -6 98 -12 102 -7 5 -7 8 0 8 6 0 10 35 10 85 0 47 2
85 5 85 3 0 6 23 8 52 1 28 7 57 12 63 6 7 8 14 5 17 -5 4 6 65 19 113 3 11
10 40 16 65 23 96 106 297 168 404 42 74 114 189 123 196 11 9 28 70 19 70 -4
0 -6 8 -3 18 4 18 -40 71 -61 73 -6 0 -22 2 -36 5 -14 2 -36 -2 -50 -9z"/>
<path d="M5750 4121 c-102 -23 -120 -150 -28 -194 45 -21 299 -37 351 -21 9 3
17 0 17 -6 0 -6 5 -8 13 -3 12 8 24 9 110 14 88 5 136 55 122 129 -7 38 -29
64 -64 75 -34 11 -71 13 -76 5 -5 -8 -395 -7 -410 1 -5 3 -21 3 -35 0z"/>
</g>
</svg>
